{"title":"Glastonbury 2016 - Mystery Jets","uid":15400878,"size":1042926212,"categoryP":"video","categoryS":"tv_shows","magnet":"?xt=urn:btih:1f3e5a3a843756db7bc37c1b9f8b1bfc96a60115&amp;dn=Glastonbury+2016+-+Mystery+Jets&amp;tr=udp%3A%2F%2Ftracker.leechers-paradise.org%3A6969&amp;tr=udp%3A%2F%2Fzer0day.ch%3A1337&amp;tr=udp%3A%2F%2Fopen.demonii.com%3A1337&amp;tr=udp%3A%2F%2Ftracker.coppersurfer.tk%3A6969&amp;tr=udp%3A%2F%2Fexodus.desync.com%3A6969","seeders":1,"leechers":0,"uploader":"RoaElson","files":2,"time":1469453896,"description":"Glastonbury 2016: Mystery Jets\r\n\r\nTransformed into the otherworldly genre of space rock, Mystery Jets have Glasto in awe.\r\n\r\n\r\n\r\n\r\nSet List on John Peel Stage on 26 Jun 2016 at Worthy Farm, Pilton:-\r\n\r\nTelomere\r\nSerotonin\r\nFlash a Hungry Smile\r\nMidnight's Mirror\r\nBlood Red Balloon\r\nHalf In Love With Elizabeth\r\nBombay Blue\r\nBubblegum\r\nYoung Love (feat. Laura Marling)\r\nTwo Doors Down\r\nAlice Springs\r\n\r\n\r\n\r\nMystery Jets Biography\r\n\r\nMystery Jets are an English indie rock band, formerly based on Eel Pie Island in Twickenham, London. The band was formed by Henry Harrison (lyrics, piano), Blaine Harrison (vocals, guitar and keyboards) and William Rees (guitar, vocals) when the boys were still at school and would send each other songs on cassettes. The other member is Kapil Trivedi (drums).\r\n\r\nFirst shown: 26 Jun 2016\r\nDuration: 58 minutes\r\n\r\nMedia Info:-\r\n\r\nGeneral\r\nFormat profile : Base Media\r\nCodec ID : isom (isom/iso2/avc1/mp41)\r\nFile size : 994 MiB\r\nDuration : 57mn 42s\r\nOverall bit rate mode : Variable\r\nOverall bit rate : 2 408 Kbps\r\n\r\nVideo\r\nID : 1\r\nFormat : AVC\r\nFormat/Info : Advanced Video Codec\r\nFormat profile :   \r\nFormat settings, CABAC : Yes\r\nFormat settings, ReFrames : 2 frames\r\nCodec ID : avc1\r\nCodec ID/Info : Advanced Video Coding\r\nDuration : 57mn 42s\r\nBit rate mode : Variable\r\nBit rate : 2 309 Kbps\r\nMaximum bit rate : 3 500 Kbps\r\nWidth : 1 280 pixels\r\nHeight : 720 pixels\r\nDisplay aspect ratio : 16:9\r\nFrame rate mode : Constant\r\nFrame rate : 25.000 fps\r\nColor space : YUV\r\nChroma subsampling : 4:2:0\r\nBit depth : 8 bits\r\nScan type : Progressive\r\nBits/(Pixel*Frame) : 0.100\r\nStream size : 953 MiB (96%)\r\n\r\nAudio\r\nID : 2\r\nFormat : AAC\r\nFormat/Info : Advanced Audio Codec\r\nFormat profile : LC\r\nCodec ID : 40\r\nDuration : 57mn 42s\r\nBit rate mode : Constant\r\nBit rate : 93.5 Kbps\r\nChannel(s) : 2 channels\r\nChannel positions : Front: L R\r\nSampling rate : 48.0 KHz\r\nFrame rate : 46.875 fps (1024 spf)\r\nCompression mode : Lossy\r\nStream size : 38.6 MiB (4%)","torrent":{"xt":"urn:btih:1f3e5a3a843756db7bc37c1b9f8b1bfc96a60115","amp;dn":"Glastonbury+2016+-+Mystery+Jets","amp;tr":["udp%3A%2F%2Ftracker.leechers-paradise.org%3A6969","udp%3A%2F%2Fzer0day.ch%3A1337","udp%3A%2F%2Fopen.demonii.com%3A1337","udp%3A%2F%2Ftracker.coppersurfer.tk%3A6969","udp%3A%2F%2Fexodus.desync.com%3A6969"],"infoHash":"1f3e5a3a843756db7bc37c1b9f8b1bfc96a60115","infoHashBuffer":{"type":"Buffer","data":[31,62,90,58,132,55,86,219,123,195,124,27,159,139,27,252,150,166,1,21]},"announce":[],"urlList":[]}}